<?xml version="1.0" encoding="utf-8"?>
<!-- Generator: Adobe Illustrator 26.2.1, SVG Export Plug-In . SVG Version: 6.00 Build 0)  -->
<svg version="1.1" id="Layer_1" xmlns="http://www.w3.org/2000/svg" xmlns:xlink="http://www.w3.org/1999/xlink" x="0px" y="0px"
	 viewBox="0 0 261 96" style="enable-background:new 0 0 261 96;" xml:space="preserve">
<style type="text/css">
	.st0{fill:#39FF14;}
	.st1{font-family:'A-Goblin-Appears!';}
	.st2{font-size:22.5911px;}
</style>
<rect width="261" height="96"/>
<rect x="32.3" y="21.5" class="st0" width="3.4" height="3.4"/>
<rect x="32.3" y="72.1" class="st0" width="3.4" height="3.4"/>
<rect x="35.7" y="21.5" class="st0" width="3.4" height="3.4"/>
<rect x="35.7" y="72.1" class="st0" width="3.4" height="3.4"/>
<rect x="39" y="21.5" class="st0" width="3.4" height="3.4"/>
<rect x="39" y="72.1" class="st0" width="3.4" height="3.4"/>
<rect x="42.4" y="21.5" class="st0" width="3.4" height="3.4"/>
<rect x="42.4" y="72.1" class="st0" width="3.4" height="3.4"/>
<rect x="45.8" y="21.5" class="st0" width="3.4" height="3.4"/>
<rect x="45.8" y="72.1" class="st0" width="3.4" height="3.4"/>
<rect x="49.1" y="21.5" class="st0" width="3.4" height="3.4"/>
<rect x="49.1" y="72.1" class="st0" width="3.4" height="3.4"/>
<rect x="52.5" y="21.5" class="st0" width="3.4" height="3.4"/>
<rect x="52.5" y="72.1" class="st0" width="3.4" height="3.4"/>
<rect x="55.9" y="21.5" class="st0" width="3.4" height="3.4"/>
<rect x="55.9" y="72.1" class="st0" width="3.4" height="3.4"/>
<rect x="59.2" y="21.5" class="st0" width="3.4" height="3.4"/>
<rect x="59.2" y="72.1" class="st0" width="3.4" height="3.4"/>
<rect x="62.6" y="21.5" class="st0" width="3.4" height="3.4"/>
<rect x="62.6" y="72.1" class="st0" width="3.4" height="3.4"/>
<rect x="66" y="21.5" class="st0" width="3.4" height="3.4"/>
<rect x="66" y="72.1" class="st0" width="3.4" height="3.4"/>
<rect x="69.4" y="21.5" class="st0" width="3.4" height="3.4"/>
<rect x="69.4" y="72.1" class="st0" width="3.4" height="3.4"/>
<rect x="72.7" y="21.5" class="st0" width="3.4" height="3.4"/>
<rect x="72.7" y="72.1" class="st0" width="3.4" height="3.4"/>
<rect x="76.1" y="21.5" class="st0" width="3.4" height="3.4"/>
<rect x="42.4" y="24.9" class="st0" width="3.4" height="3.4"/>
<rect x="45.8" y="24.9" class="st0" width="3.4" height="3.4"/>
<rect x="49.1" y="24.9" class="st0" width="3.4" height="3.4"/>
<rect x="52.5" y="24.9" class="st0" width="3.4" height="3.4"/>
<rect x="55.9" y="24.9" class="st0" width="3.4" height="3.4"/>
<rect x="59.2" y="24.9" class="st0" width="3.4" height="3.4"/>
<rect x="62.6" y="24.9" class="st0" width="3.4" height="3.4"/>
<rect x="66" y="24.9" class="st0" width="3.4" height="3.4"/>
<rect x="69.4" y="24.9" class="st0" width="3.4" height="3.4"/>
<rect x="72.7" y="24.9" class="st0" width="3.4" height="3.4"/>
<rect x="42.4" y="28.3" class="st0" width="3.4" height="3.4"/>
<rect x="45.8" y="28.3" class="st0" width="3.4" height="3.4"/>
<rect x="49.1" y="28.3" class="st0" width="3.4" height="3.4"/>
<rect x="52.5" y="28.3" class="st0" width="3.4" height="3.4"/>
<rect x="55.9" y="28.3" class="st0" width="3.4" height="3.4"/>
<rect x="59.2" y="28.3" class="st0" width="3.4" height="3.4"/>
<rect x="62.6" y="28.3" class="st0" width="3.4" height="3.4"/>
<rect x="66" y="28.3" class="st0" width="3.4" height="3.4"/>
<rect x="69.4" y="28.3" class="st0" width="3.4" height="3.4"/>
<rect x="45.8" y="31.6" class="st0" width="3.4" height="3.4"/>
<rect x="49.1" y="31.6" class="st0" width="3.4" height="3.4"/>
<rect x="52.5" y="31.6" class="st0" width="3.4" height="3.4"/>
<rect x="55.9" y="31.6" class="st0" width="3.4" height="3.4"/>
<rect x="59.2" y="31.6" class="st0" width="3.4" height="3.4"/>
<rect x="62.6" y="31.6" class="st0" width="3.4" height="3.4"/>
<rect x="66" y="31.6" class="st0" width="3.4" height="3.4"/>
<rect x="49.1" y="35" class="st0" width="3.4" height="3.4"/>
<rect x="52.5" y="35" class="st0" width="3.4" height="3.4"/>
<rect x="55.9" y="35" class="st0" width="3.4" height="3.4"/>
<rect x="59.2" y="35" class="st0" width="3.4" height="3.4"/>
<rect x="62.6" y="35" class="st0" width="3.4" height="3.4"/>
<rect x="52.5" y="38.4" class="st0" width="3.4" height="3.4"/>
<rect x="55.9" y="38.4" class="st0" width="3.4" height="3.4"/>
<rect x="59.2" y="38.4" class="st0" width="3.4" height="3.4"/>
<rect x="55.9" y="41.7" class="st0" width="3.4" height="3.4"/>
<rect x="59.2" y="41.7" class="st0" width="3.4" height="3.4"/>
<rect x="62.6" y="38.4" class="st0" width="3.4" height="3.4"/>
<rect x="66" y="35" class="st0" width="3.4" height="3.4"/>
<rect x="69.4" y="31.6" class="st0" width="3.4" height="3.4"/>
<rect x="72.7" y="28.3" class="st0" width="3.4" height="3.4"/>
<rect x="76.1" y="24.9" class="st0" width="3.4" height="3.4"/>
<rect x="76.1" y="72.1" class="st0" width="3.4" height="3.4"/>
<rect x="79.5" y="21.5" class="st0" width="3.4" height="3.4"/>
<rect x="79.5" y="72.1" class="st0" width="3.4" height="3.4"/>
<rect x="82.8" y="21.5" class="st0" width="3.4" height="3.4"/>
<rect x="82.8" y="72.1" class="st0" width="3.4" height="3.4"/>
<rect x="32.3" y="21.5" class="st0" width="3.4" height="3.4"/>
<rect x="82.8" y="21.5" class="st0" width="3.4" height="3.4"/>
<rect x="32.3" y="24.9" class="st0" width="3.4" height="3.4"/>
<rect x="82.8" y="24.9" class="st0" width="3.4" height="3.4"/>
<rect x="32.3" y="28.3" class="st0" width="3.4" height="3.4"/>
<rect x="82.8" y="28.3" class="st0" width="3.4" height="3.4"/>
<rect x="32.3" y="31.6" class="st0" width="3.4" height="3.4"/>
<rect x="82.8" y="31.6" class="st0" width="3.4" height="3.4"/>
<rect x="32.3" y="35" class="st0" width="3.4" height="3.4"/>
<rect x="82.8" y="35" class="st0" width="3.4" height="3.4"/>
<rect x="32.3" y="38.4" class="st0" width="3.4" height="3.4"/>
<rect x="82.8" y="38.4" class="st0" width="3.4" height="3.4"/>
<rect x="32.3" y="41.7" class="st0" width="3.4" height="3.4"/>
<rect x="82.8" y="41.7" class="st0" width="3.4" height="3.4"/>
<rect x="32.3" y="45.1" class="st0" width="3.4" height="3.4"/>
<rect x="82.8" y="45.1" class="st0" width="3.4" height="3.4"/>
<rect x="32.3" y="48.5" class="st0" width="3.4" height="3.4"/>
<rect x="82.8" y="48.5" class="st0" width="3.4" height="3.4"/>
<rect x="32.3" y="51.8" class="st0" width="3.4" height="3.4"/>
<rect x="82.8" y="51.8" class="st0" width="3.4" height="3.4"/>
<rect x="32.3" y="55.2" class="st0" width="3.4" height="3.4"/>
<rect x="82.8" y="55.2" class="st0" width="3.4" height="3.4"/>
<rect x="32.3" y="58.6" class="st0" width="3.4" height="3.4"/>
<rect x="82.8" y="58.6" class="st0" width="3.4" height="3.4"/>
<rect x="32.3" y="61.9" class="st0" width="3.4" height="3.4"/>
<rect x="82.8" y="61.9" class="st0" width="3.4" height="3.4"/>
<rect x="32.3" y="65.3" class="st0" width="3.4" height="3.4"/>
<rect x="82.8" y="65.3" class="st0" width="3.4" height="3.4"/>
<rect x="32.3" y="68.7" class="st0" width="3.4" height="3.4"/>
<rect x="82.8" y="68.7" class="st0" width="3.4" height="3.4"/>
<rect x="32.3" y="72.1" class="st0" width="3.4" height="3.4"/>
<rect x="82.8" y="72.1" class="st0" width="3.4" height="3.4"/>
<rect x="35.7" y="24.9" class="st0" width="3.4" height="3.4"/>
<rect x="79.5" y="24.9" class="st0" width="3.4" height="3.4"/>
<rect x="39" y="28.3" class="st0" width="3.4" height="3.4"/>
<rect x="39" y="24.9" class="st0" width="3.4" height="3.4"/>
<rect x="76.1" y="28.3" class="st0" width="3.4" height="3.4"/>
<rect x="42.4" y="31.6" class="st0" width="3.4" height="3.4"/>
<rect x="72.7" y="31.6" class="st0" width="3.4" height="3.4"/>
<rect x="45.8" y="35" class="st0" width="3.4" height="3.4"/>
<rect x="69.4" y="35" class="st0" width="3.4" height="3.4"/>
<rect x="49.1" y="38.4" class="st0" width="3.4" height="3.4"/>
<rect x="66" y="38.4" class="st0" width="3.4" height="3.4"/>
<rect x="52.5" y="41.7" class="st0" width="3.4" height="3.4"/>
<rect x="62.6" y="41.7" class="st0" width="3.4" height="3.4"/>
<rect x="55.9" y="45.1" class="st0" width="3.4" height="3.4"/>
<rect x="59.2" y="45.1" class="st0" width="3.4" height="3.4"/>
<rect x="59.2" y="48.5" class="st0" width="3.4" height="3.4"/>
<rect x="55.9" y="48.5" class="st0" width="3.4" height="3.4"/>
<rect x="62.6" y="51.8" class="st0" width="3.4" height="3.4"/>
<rect x="52.5" y="51.8" class="st0" width="3.4" height="3.4"/>
<rect x="66" y="55.2" class="st0" width="3.4" height="3.4"/>
<rect x="49.1" y="55.2" class="st0" width="3.4" height="3.4"/>
<rect x="69.4" y="58.6" class="st0" width="3.4" height="3.4"/>
<rect x="45.8" y="58.6" class="st0" width="3.4" height="3.4"/>
<rect x="72.7" y="61.9" class="st0" width="3.4" height="3.4"/>
<rect x="42.4" y="61.9" class="st0" width="3.4" height="3.4"/>
<rect x="76.1" y="65.3" class="st0" width="3.4" height="3.4"/>
<rect x="39" y="65.3" class="st0" width="3.4" height="3.4"/>
<rect x="79.5" y="68.7" class="st0" width="3.4" height="3.4"/>
<rect x="35.7" y="68.7" class="st0" width="3.4" height="3.4"/>
<text transform="matrix(1 0 0 1 115.4524 57.5493)" class="st0 st1 st2">email</text>
</svg>
