<svg xmlns="http://www.w3.org/2000/svg" width="381" height="96" viewBox="0 0 381 96"><rect x="0" y="0" width="381" height="96" fill="#000000"/><rect x="18" y="23" width="5" height="5" fill="#39FF14"/><rect x="18" y="73" width="5" height="5" fill="#39FF14"/><rect x="23" y="23" width="5" height="5" fill="#39FF14"/><rect x="23" y="73" width="5" height="5" fill="#39FF14"/><rect x="28" y="23" width="5" height="5" fill="#39FF14"/><rect x="28" y="73" width="5" height="5" fill="#39FF14"/><rect x="33" y="23" width="5" height="5" fill="#39FF14"/><rect x="33" y="73" width="5" height="5" fill="#39FF14"/><rect x="38" y="23" width="5" height="5" fill="#39FF14"/><rect x="38" y="73" width="5" height="5" fill="#39FF14"/><rect x="43" y="23" width="5" height="5" fill="#39FF14"/><rect x="43" y="73" width="5" height="5" fill="#39FF14"/><rect x="48" y="23" width="5" height="5" fill="#39FF14"/><rect x="48" y="73" width="5" height="5" fill="#39FF14"/><rect x="53" y="23" width="5" height="5" fill="#39FF14"/><rect x="53" y="73" width="5" height="5" fill="#39FF14"/><rect x="58" y="23" width="5" height="5" fill="#39FF14"/><rect x="58" y="73" width="5" height="5" fill="#39FF14"/><rect x="63" y="23" width="5" height="5" fill="#39FF14"/><rect x="63" y="73" width="5" height="5" fill="#39FF14"/><rect x="68" y="23" width="5" height="5" fill="#39FF14"/><rect x="68" y="73" width="5" height="5" fill="#39FF14"/><rect x="73" y="23" width="5" height="5" fill="#39FF14"/><rect x="73" y="73" width="5" height="5" fill="#39FF14"/><rect x="18" y="28" width="5" height="5" fill="#39FF14"/><rect x="73" y="28" width="5" height="5" fill="#39FF14"/><rect x="18" y="33" width="5" height="5" fill="#39FF14"/><rect x="73" y="33" width="5" height="5" fill="#39FF14"/><rect x="18" y="38" width="5" height="5" fill="#39FF14"/><rect x="73" y="38" width="5" height="5" fill="#39FF14"/><rect x="18" y="43" width="5" height="5" fill="#39FF14"/><rect x="73" y="43" width="5" height="5" fill="#39FF14"/><rect x="18" y="48" width="5" height="5" fill="#39FF14"/><rect x="73" y="48" width="5" height="5" fill="#39FF14"/><rect x="18" y="53" width="5" height="5" fill="#39FF14"/><rect x="73" y="53" width="5" height="5" fill="#39FF14"/><rect x="18" y="58" width="5" height="5" fill="#39FF14"/><rect x="73" y="58" width="5" height="5" fill="#39FF14"/><rect x="18" y="63" width="5" height="5" fill="#39FF14"/><rect x="73" y="63" width="5" height="5" fill="#39FF14"/><rect x="18" y="68" width="5" height="5" fill="#39FF14"/><rect x="73" y="68" width="5" height="5" fill="#39FF14"/><rect x="33" y="18" width="5" height="5" fill="#39FF14"/><rect x="38" y="18" width="5" height="5" fill="#39FF14"/><rect x="43" y="18" width="5" height="5" fill="#39FF14"/><rect x="43" y="48" width="5" height="5" fill="#39FF14"/><rect x="48" y="48" width="5" height="5" fill="#39FF14"/><rect x="38" y="48" width="5" height="5" fill="#39FF14"/><rect x="43" y="53" width="5" height="5" fill="#39FF14"/><rect x="48" y="53" width="5" height="5" fill="#39FF14"/><rect x="38" y="53" width="5" height="5" fill="#39FF14"/><rect x="43" y="43" width="5" height="5" fill="#39FF14"/><rect x="48" y="43" width="5" height="5" fill="#39FF14"/><rect x="43" y="58" width="5" height="5" fill="#39FF14"/><rect x="48" y="58" width="5" height="5" fill="#39FF14"/><rect x="108" y="30" width="5" height="5" fill="#39FF14"/><rect x="113" y="30" width="5" height="5" fill="#39FF14"/><rect x="118" y="30" width="5" height="5" fill="#39FF14"/><rect x="123" y="30" width="5" height="5" fill="#39FF14"/><rect x="128" y="30" width="5" height="5" fill="#39FF14"/><rect x="138" y="30" width="5" height="5" fill="#39FF14"/><rect x="158" y="30" width="5" height="5" fill="#39FF14"/><rect x="173" y="30" width="5" height="5" fill="#39FF14"/><rect x="178" y="30" width="5" height="5" fill="#39FF14"/><rect x="183" y="30" width="5" height="5" fill="#39FF14"/><rect x="188" y="30" width="5" height="5" fill="#39FF14"/><rect x="198" y="30" width="5" height="5" fill="#39FF14"/><rect x="203" y="30" width="5" height="5" fill="#39FF14"/><rect x="208" y="30" width="5" height="5" fill="#39FF14"/><rect x="213" y="30" width="5" height="5" fill="#39FF14"/><rect x="218" y="30" width="5" height="5" fill="#39FF14"/><rect x="233" y="30" width="5" height="5" fill="#39FF14"/><rect x="238" y="30" width="5" height="5" fill="#39FF14"/><rect x="243" y="30" width="5" height="5" fill="#39FF14"/><rect x="263" y="30" width="5" height="5" fill="#39FF14"/><rect x="268" y="30" width="5" height="5" fill="#39FF14"/><rect x="273" y="30" width="5" height="5" fill="#39FF14"/><rect x="288" y="30" width="5" height="5" fill="#39FF14"/><rect x="293" y="30" width="5" height="5" fill="#39FF14"/><rect x="298" y="30" width="5" height="5" fill="#39FF14"/><rect x="303" y="30" width="5" height="5" fill="#39FF14"/><rect x="323" y="30" width="5" height="5" fill="#39FF14"/><rect x="328" y="30" width="5" height="5" fill="#39FF14"/><rect x="333" y="30" width="5" height="5" fill="#39FF14"/><rect x="348" y="30" width="5" height="5" fill="#39FF14"/><rect x="368" y="30" width="5" height="5" fill="#39FF14"/><rect x="118" y="35" width="5" height="5" fill="#39FF14"/><rect x="138" y="35" width="5" height="5" fill="#39FF14"/><rect x="143" y="35" width="5" height="5" fill="#39FF14"/><rect x="158" y="35" width="5" height="5" fill="#39FF14"/><rect x="168" y="35" width="5" height="5" fill="#39FF14"/><rect x="208" y="35" width="5" height="5" fill="#39FF14"/><rect x="228" y="35" width="5" height="5" fill="#39FF14"/><rect x="248" y="35" width="5" height="5" fill="#39FF14"/><rect x="258" y="35" width="5" height="5" fill="#39FF14"/><rect x="278" y="35" width="5" height="5" fill="#39FF14"/><rect x="288" y="35" width="5" height="5" fill="#39FF14"/><rect x="308" y="35" width="5" height="5" fill="#39FF14"/><rect x="318" y="35" width="5" height="5" fill="#39FF14"/><rect x="338" y="35" width="5" height="5" fill="#39FF14"/><rect x="348" y="35" width="5" height="5" fill="#39FF14"/><rect x="353" y="35" width="5" height="5" fill="#39FF14"/><rect x="363" y="35" width="5" height="5" fill="#39FF14"/><rect x="368" y="35" width="5" height="5" fill="#39FF14"/><rect x="118" y="40" width="5" height="5" fill="#39FF14"/><rect x="138" y="40" width="5" height="5" fill="#39FF14"/><rect x="148" y="40" width="5" height="5" fill="#39FF14"/><rect x="158" y="40" width="5" height="5" fill="#39FF14"/><rect x="168" y="40" width="5" height="5" fill="#39FF14"/><rect x="173" y="40" width="5" height="5" fill="#39FF14"/><rect x="178" y="40" width="5" height="5" fill="#39FF14"/><rect x="183" y="40" width="5" height="5" fill="#39FF14"/><rect x="208" y="40" width="5" height="5" fill="#39FF14"/><rect x="228" y="40" width="5" height="5" fill="#39FF14"/><rect x="248" y="40" width="5" height="5" fill="#39FF14"/><rect x="258" y="40" width="5" height="5" fill="#39FF14"/><rect x="288" y="40" width="5" height="5" fill="#39FF14"/><rect x="308" y="40" width="5" height="5" fill="#39FF14"/><rect x="318" y="40" width="5" height="5" fill="#39FF14"/><rect x="338" y="40" width="5" height="5" fill="#39FF14"/><rect x="348" y="40" width="5" height="5" fill="#39FF14"/><rect x="358" y="40" width="5" height="5" fill="#39FF14"/><rect x="368" y="40" width="5" height="5" fill="#39FF14"/><rect x="118" y="45" width="5" height="5" fill="#39FF14"/><rect x="138" y="45" width="5" height="5" fill="#39FF14"/><rect x="153" y="45" width="5" height="5" fill="#39FF14"/><rect x="158" y="45" width="5" height="5" fill="#39FF14"/><rect x="188" y="45" width="5" height="5" fill="#39FF14"/><rect x="208" y="45" width="5" height="5" fill="#39FF14"/><rect x="228" y="45" width="5" height="5" fill="#39FF14"/><rect x="233" y="45" width="5" height="5" fill="#39FF14"/><rect x="238" y="45" width="5" height="5" fill="#39FF14"/><rect x="243" y="45" width="5" height="5" fill="#39FF14"/><rect x="248" y="45" width="5" height="5" fill="#39FF14"/><rect x="258" y="45" width="5" height="5" fill="#39FF14"/><rect x="273" y="45" width="5" height="5" fill="#39FF14"/><rect x="278" y="45" width="5" height="5" fill="#39FF14"/><rect x="288" y="45" width="5" height="5" fill="#39FF14"/><rect x="293" y="45" width="5" height="5" fill="#39FF14"/><rect x="298" y="45" width="5" height="5" fill="#39FF14"/><rect x="303" y="45" width="5" height="5" fill="#39FF14"/><rect x="318" y="45" width="5" height="5" fill="#39FF14"/><rect x="323" y="45" width="5" height="5" fill="#39FF14"/><rect x="328" y="45" width="5" height="5" fill="#39FF14"/><rect x="333" y="45" width="5" height="5" fill="#39FF14"/><rect x="338" y="45" width="5" height="5" fill="#39FF14"/><rect x="348" y="45" width="5" height="5" fill="#39FF14"/><rect x="358" y="45" width="5" height="5" fill="#39FF14"/><rect x="368" y="45" width="5" height="5" fill="#39FF14"/><rect x="118" y="50" width="5" height="5" fill="#39FF14"/><rect x="138" y="50" width="5" height="5" fill="#39FF14"/><rect x="158" y="50" width="5" height="5" fill="#39FF14"/><rect x="188" y="50" width="5" height="5" fill="#39FF14"/><rect x="208" y="50" width="5" height="5" fill="#39FF14"/><rect x="228" y="50" width="5" height="5" fill="#39FF14"/><rect x="248" y="50" width="5" height="5" fill="#39FF14"/><rect x="258" y="50" width="5" height="5" fill="#39FF14"/><rect x="278" y="50" width="5" height="5" fill="#39FF14"/><rect x="288" y="50" width="5" height="5" fill="#39FF14"/><rect x="298" y="50" width="5" height="5" fill="#39FF14"/><rect x="318" y="50" width="5" height="5" fill="#39FF14"/><rect x="338" y="50" width="5" height="5" fill="#39FF14"/><rect x="348" y="50" width="5" height="5" fill="#39FF14"/><rect x="368" y="50" width="5" height="5" fill="#39FF14"/><rect x="118" y="55" width="5" height="5" fill="#39FF14"/><rect x="138" y="55" width="5" height="5" fill="#39FF14"/><rect x="158" y="55" width="5" height="5" fill="#39FF14"/><rect x="168" y="55" width="5" height="5" fill="#39FF14"/><rect x="188" y="55" width="5" height="5" fill="#39FF14"/><rect x="208" y="55" width="5" height="5" fill="#39FF14"/><rect x="228" y="55" width="5" height="5" fill="#39FF14"/><rect x="248" y="55" width="5" height="5" fill="#39FF14"/><rect x="258" y="55" width="5" height="5" fill="#39FF14"/><rect x="278" y="55" width="5" height="5" fill="#39FF14"/><rect x="288" y="55" width="5" height="5" fill="#39FF14"/><rect x="303" y="55" width="5" height="5" fill="#39FF14"/><rect x="318" y="55" width="5" height="5" fill="#39FF14"/><rect x="338" y="55" width="5" height="5" fill="#39FF14"/><rect x="348" y="55" width="5" height="5" fill="#39FF14"/><rect x="368" y="55" width="5" height="5" fill="#39FF14"/><rect x="108" y="60" width="5" height="5" fill="#39FF14"/><rect x="113" y="60" width="5" height="5" fill="#39FF14"/><rect x="118" y="60" width="5" height="5" fill="#39FF14"/><rect x="123" y="60" width="5" height="5" fill="#39FF14"/><rect x="128" y="60" width="5" height="5" fill="#39FF14"/><rect x="138" y="60" width="5" height="5" fill="#39FF14"/><rect x="158" y="60" width="5" height="5" fill="#39FF14"/><rect x="173" y="60" width="5" height="5" fill="#39FF14"/><rect x="178" y="60" width="5" height="5" fill="#39FF14"/><rect x="183" y="60" width="5" height="5" fill="#39FF14"/><rect x="208" y="60" width="5" height="5" fill="#39FF14"/><rect x="228" y="60" width="5" height="5" fill="#39FF14"/><rect x="248" y="60" width="5" height="5" fill="#39FF14"/><rect x="263" y="60" width="5" height="5" fill="#39FF14"/><rect x="268" y="60" width="5" height="5" fill="#39FF14"/><rect x="273" y="60" width="5" height="5" fill="#39FF14"/><rect x="288" y="60" width="5" height="5" fill="#39FF14"/><rect x="308" y="60" width="5" height="5" fill="#39FF14"/><rect x="318" y="60" width="5" height="5" fill="#39FF14"/><rect x="338" y="60" width="5" height="5" fill="#39FF14"/><rect x="348" y="60" width="5" height="5" fill="#39FF14"/><rect x="368" y="60" width="5" height="5" fill="#39FF14"/></svg>