<?xml version="1.0" encoding="utf-8"?>
<!-- Generator: Adobe Illustrator 26.2.1, SVG Export Plug-In . SVG Version: 6.00 Build 0)  -->
<svg version="1.1" id="Layer_1" xmlns="http://www.w3.org/2000/svg" xmlns:xlink="http://www.w3.org/1999/xlink" x="0px" y="0px"
	 viewBox="0 0 381 96" style="enable-background:new 0 0 381 96;" xml:space="preserve">
<style type="text/css">
	.st0{fill:#39FF14;}
	.st1{font-family:'A-Goblin-Appears!';}
	.st2{font-size:22.5911px;}
</style>
<rect width="381" height="96"/>
<rect x="38" y="23.9" class="st0" width="4.6" height="4.6"/>
<rect x="38" y="69.7" class="st0" width="4.6" height="4.6"/>
<rect x="42.6" y="23.9" class="st0" width="4.6" height="4.6"/>
<rect x="42.6" y="69.7" class="st0" width="4.6" height="4.6"/>
<rect x="47.2" y="23.9" class="st0" width="4.6" height="4.6"/>
<rect x="47.2" y="69.7" class="st0" width="4.6" height="4.6"/>
<rect x="51.8" y="23.9" class="st0" width="4.6" height="4.6"/>
<rect x="51.8" y="69.7" class="st0" width="4.6" height="4.6"/>
<rect x="56.3" y="23.9" class="st0" width="4.6" height="4.6"/>
<rect x="56.3" y="69.7" class="st0" width="4.6" height="4.6"/>
<rect x="60.9" y="23.9" class="st0" width="4.6" height="4.6"/>
<rect x="60.9" y="69.7" class="st0" width="4.6" height="4.6"/>
<rect x="65.5" y="23.9" class="st0" width="4.6" height="4.6"/>
<rect x="65.5" y="69.7" class="st0" width="4.6" height="4.6"/>
<rect x="70.1" y="23.9" class="st0" width="4.6" height="4.6"/>
<rect x="70.1" y="69.7" class="st0" width="4.6" height="4.6"/>
<rect x="74.7" y="23.9" class="st0" width="4.6" height="4.6"/>
<rect x="74.7" y="69.7" class="st0" width="4.6" height="4.6"/>
<rect x="79.2" y="23.9" class="st0" width="4.6" height="4.6"/>
<rect x="79.2" y="69.7" class="st0" width="4.6" height="4.6"/>
<rect x="83.8" y="23.9" class="st0" width="4.6" height="4.6"/>
<rect x="83.8" y="69.7" class="st0" width="4.6" height="4.6"/>
<rect x="88.4" y="23.9" class="st0" width="4.6" height="4.6"/>
<rect x="88.4" y="69.7" class="st0" width="4.6" height="4.6"/>
<rect x="38" y="28.5" class="st0" width="4.6" height="4.6"/>
<rect x="88.4" y="28.5" class="st0" width="4.6" height="4.6"/>
<rect x="38" y="33" class="st0" width="4.6" height="4.6"/>
<rect x="88.4" y="33" class="st0" width="4.6" height="4.6"/>
<rect x="38" y="37.6" class="st0" width="4.6" height="4.6"/>
<rect x="88.4" y="37.6" class="st0" width="4.6" height="4.6"/>
<rect x="38" y="42.2" class="st0" width="4.6" height="4.6"/>
<rect x="88.4" y="42.2" class="st0" width="4.6" height="4.6"/>
<rect x="38" y="46.8" class="st0" width="4.6" height="4.6"/>
<rect x="88.4" y="46.8" class="st0" width="4.6" height="4.6"/>
<rect x="38" y="51.4" class="st0" width="4.6" height="4.6"/>
<rect x="88.4" y="51.4" class="st0" width="4.6" height="4.6"/>
<rect x="38" y="56" class="st0" width="4.6" height="4.6"/>
<rect x="88.4" y="56" class="st0" width="4.6" height="4.6"/>
<rect x="38" y="60.5" class="st0" width="4.6" height="4.6"/>
<rect x="88.4" y="60.5" class="st0" width="4.6" height="4.6"/>
<rect x="38" y="65.1" class="st0" width="4.6" height="4.6"/>
<rect x="88.4" y="65.1" class="st0" width="4.6" height="4.6"/>
<rect x="51.8" y="19.3" class="st0" width="4.6" height="4.6"/>
<rect x="56.3" y="19.3" class="st0" width="4.6" height="4.6"/>
<rect x="60.9" y="19.3" class="st0" width="4.6" height="4.6"/>
<rect x="60.9" y="44.8" class="st0" width="4.6" height="4.6"/>
<rect x="65.5" y="44.8" class="st0" width="4.6" height="4.6"/>
<rect x="56.3" y="44.8" class="st0" width="4.6" height="4.6"/>
<rect x="60.9" y="49.4" class="st0" width="4.6" height="4.6"/>
<rect x="65.5" y="49.4" class="st0" width="4.6" height="4.6"/>
<rect x="56.3" y="49.4" class="st0" width="4.6" height="4.6"/>
<rect x="70.1" y="44.8" class="st0" width="4.6" height="4.6"/>
<rect x="70.1" y="49.4" class="st0" width="4.6" height="4.6"/>
<rect x="60.9" y="40.2" class="st0" width="4.6" height="4.6"/>
<rect x="65.5" y="40.2" class="st0" width="4.6" height="4.6"/>
<rect x="60.9" y="54" class="st0" width="4.6" height="4.6"/>
<rect x="65.5" y="54" class="st0" width="4.6" height="4.6"/>
<text transform="matrix(1 0 0 1 127.8005 60.5002)" class="st0 st1 st2">instagram</text>
</svg>
