<?xml version="1.0" encoding="utf-8"?>
<!-- Generator: Adobe Illustrator 26.2.1, SVG Export Plug-In . SVG Version: 6.00 Build 0)  -->
<svg version="1.1" id="Layer_1" xmlns="http://www.w3.org/2000/svg" xmlns:xlink="http://www.w3.org/1999/xlink" x="0px" y="0px"
	 viewBox="0 0 291 96" style="enable-background:new 0 0 291 96;" xml:space="preserve">
<style type="text/css">
	.st0{fill:#39FF14;}
	.st1{font-family:'Menlo-Regular';}
	.st2{font-size:35.181px;}
</style>
<rect width="291" height="96"/>
<rect x="32.3" y="20" class="st0" width="4.2" height="4.2"/>
<rect x="32.3" y="70.8" class="st0" width="4.2" height="4.2"/>
<rect x="36.6" y="20" class="st0" width="4.2" height="4.2"/>
<rect x="36.6" y="70.8" class="st0" width="4.2" height="4.2"/>
<rect x="40.8" y="20" class="st0" width="4.2" height="4.2"/>
<rect x="40.8" y="70.8" class="st0" width="4.2" height="4.2"/>
<rect x="45" y="20" class="st0" width="4.2" height="4.2"/>
<rect x="45" y="70.8" class="st0" width="4.2" height="4.2"/>
<rect x="49.3" y="20" class="st0" width="4.2" height="4.2"/>
<rect x="49.3" y="70.8" class="st0" width="4.2" height="4.2"/>
<rect x="53.5" y="20" class="st0" width="4.2" height="4.2"/>
<rect x="53.5" y="70.8" class="st0" width="4.2" height="4.2"/>
<rect x="57.7" y="20" class="st0" width="4.2" height="4.2"/>
<rect x="57.7" y="70.8" class="st0" width="4.2" height="4.2"/>
<rect x="62" y="20" class="st0" width="4.2" height="4.2"/>
<rect x="62" y="70.8" class="st0" width="4.2" height="4.2"/>
<rect x="66.2" y="20" class="st0" width="4.2" height="4.2"/>
<rect x="66.2" y="70.8" class="st0" width="4.2" height="4.2"/>
<rect x="70.4" y="20" class="st0" width="4.2" height="4.2"/>
<rect x="70.4" y="70.8" class="st0" width="4.2" height="4.2"/>
<rect x="32.3" y="24.2" class="st0" width="4.2" height="4.2"/>
<rect x="70.4" y="24.2" class="st0" width="4.2" height="4.2"/>
<rect x="32.3" y="28.5" class="st0" width="4.2" height="4.2"/>
<rect x="70.4" y="28.5" class="st0" width="4.2" height="4.2"/>
<rect x="32.3" y="32.7" class="st0" width="4.2" height="4.2"/>
<rect x="70.4" y="32.7" class="st0" width="4.2" height="4.2"/>
<rect x="32.3" y="36.9" class="st0" width="4.2" height="4.2"/>
<rect x="70.4" y="36.9" class="st0" width="4.2" height="4.2"/>
<rect x="32.3" y="41.2" class="st0" width="4.2" height="4.2"/>
<rect x="70.4" y="41.2" class="st0" width="4.2" height="4.2"/>
<rect x="32.3" y="45.4" class="st0" width="4.2" height="4.2"/>
<rect x="70.4" y="45.4" class="st0" width="4.2" height="4.2"/>
<rect x="32.3" y="49.6" class="st0" width="4.2" height="4.2"/>
<rect x="70.4" y="49.6" class="st0" width="4.2" height="4.2"/>
<rect x="32.3" y="53.8" class="st0" width="4.2" height="4.2"/>
<rect x="70.4" y="53.8" class="st0" width="4.2" height="4.2"/>
<rect x="32.3" y="58.1" class="st0" width="4.2" height="4.2"/>
<rect x="70.4" y="58.1" class="st0" width="4.2" height="4.2"/>
<rect x="32.3" y="62.3" class="st0" width="4.2" height="4.2"/>
<rect x="70.4" y="62.3" class="st0" width="4.2" height="4.2"/>
<rect x="32.3" y="66.5" class="st0" width="4.2" height="4.2"/>
<rect x="70.4" y="66.5" class="st0" width="4.2" height="4.2"/>
<rect x="70.4" y="20" class="st0" width="4.2" height="4.2"/>
<rect x="66.2" y="24.2" class="st0" width="4.2" height="4.2"/>
<rect x="62" y="28.5" class="st0" width="4.2" height="4.2"/>
<rect x="57.7" y="32.7" class="st0" width="4.2" height="4.2"/>
<rect x="40.8" y="32.7" class="st0" width="4.2" height="4.2"/>
<rect x="45" y="32.7" class="st0" width="4.2" height="4.2"/>
<rect x="49.3" y="32.7" class="st0" width="4.2" height="4.2"/>
<rect x="53.5" y="32.7" class="st0" width="4.2" height="4.2"/>
<rect x="57.7" y="32.7" class="st0" width="4.2" height="4.2"/>
<rect x="62" y="32.7" class="st0" width="4.2" height="4.2"/>
<rect x="40.8" y="41.2" class="st0" width="4.2" height="4.2"/>
<rect x="45" y="41.2" class="st0" width="4.2" height="4.2"/>
<rect x="49.3" y="41.2" class="st0" width="4.2" height="4.2"/>
<rect x="53.5" y="41.2" class="st0" width="4.2" height="4.2"/>
<rect x="57.7" y="41.2" class="st0" width="4.2" height="4.2"/>
<rect x="62" y="41.2" class="st0" width="4.2" height="4.2"/>
<rect x="40.8" y="49.6" class="st0" width="4.2" height="4.2"/>
<rect x="45" y="49.6" class="st0" width="4.2" height="4.2"/>
<rect x="49.3" y="49.6" class="st0" width="4.2" height="4.2"/>
<rect x="53.5" y="49.6" class="st0" width="4.2" height="4.2"/>
<rect x="57.7" y="49.6" class="st0" width="4.2" height="4.2"/>
<rect x="62" y="49.6" class="st0" width="4.2" height="4.2"/>
<rect x="40.8" y="58.1" class="st0" width="4.2" height="4.2"/>
<rect x="45" y="58.1" class="st0" width="4.2" height="4.2"/>
<rect x="49.3" y="58.1" class="st0" width="4.2" height="4.2"/>
<rect x="53.5" y="58.1" class="st0" width="4.2" height="4.2"/>
<rect x="57.7" y="58.1" class="st0" width="4.2" height="4.2"/>
<rect x="62" y="58.1" class="st0" width="4.2" height="4.2"/>
<text transform="matrix(1 0 0 1 110.9911 56.9614)" class="st0 st1 st2">resume</text>
</svg>
