<svg xmlns="http://www.w3.org/2000/svg" width="291" height="96" viewBox="0 0 291 96"><rect x="0" y="0" width="291" height="96" fill="#000000"/><rect x="23" y="18" width="5" height="5" fill="#39FF14"/><rect x="23" y="78" width="5" height="5" fill="#39FF14"/><rect x="28" y="18" width="5" height="5" fill="#39FF14"/><rect x="28" y="78" width="5" height="5" fill="#39FF14"/><rect x="33" y="18" width="5" height="5" fill="#39FF14"/><rect x="33" y="78" width="5" height="5" fill="#39FF14"/><rect x="38" y="18" width="5" height="5" fill="#39FF14"/><rect x="38" y="78" width="5" height="5" fill="#39FF14"/><rect x="43" y="18" width="5" height="5" fill="#39FF14"/><rect x="43" y="78" width="5" height="5" fill="#39FF14"/><rect x="48" y="18" width="5" height="5" fill="#39FF14"/><rect x="48" y="78" width="5" height="5" fill="#39FF14"/><rect x="53" y="18" width="5" height="5" fill="#39FF14"/><rect x="53" y="78" width="5" height="5" fill="#39FF14"/><rect x="58" y="18" width="5" height="5" fill="#39FF14"/><rect x="58" y="78" width="5" height="5" fill="#39FF14"/><rect x="63" y="18" width="5" height="5" fill="#39FF14"/><rect x="63" y="78" width="5" height="5" fill="#39FF14"/><rect x="68" y="18" width="5" height="5" fill="#39FF14"/><rect x="68" y="78" width="5" height="5" fill="#39FF14"/><rect x="23" y="23" width="5" height="5" fill="#39FF14"/><rect x="68" y="23" width="5" height="5" fill="#39FF14"/><rect x="23" y="28" width="5" height="5" fill="#39FF14"/><rect x="68" y="28" width="5" height="5" fill="#39FF14"/><rect x="23" y="33" width="5" height="5" fill="#39FF14"/><rect x="68" y="33" width="5" height="5" fill="#39FF14"/><rect x="23" y="38" width="5" height="5" fill="#39FF14"/><rect x="68" y="38" width="5" height="5" fill="#39FF14"/><rect x="23" y="43" width="5" height="5" fill="#39FF14"/><rect x="68" y="43" width="5" height="5" fill="#39FF14"/><rect x="23" y="48" width="5" height="5" fill="#39FF14"/><rect x="68" y="48" width="5" height="5" fill="#39FF14"/><rect x="23" y="53" width="5" height="5" fill="#39FF14"/><rect x="68" y="53" width="5" height="5" fill="#39FF14"/><rect x="23" y="58" width="5" height="5" fill="#39FF14"/><rect x="68" y="58" width="5" height="5" fill="#39FF14"/><rect x="23" y="63" width="5" height="5" fill="#39FF14"/><rect x="68" y="63" width="5" height="5" fill="#39FF14"/><rect x="23" y="68" width="5" height="5" fill="#39FF14"/><rect x="68" y="68" width="5" height="5" fill="#39FF14"/><rect x="23" y="73" width="5" height="5" fill="#39FF14"/><rect x="68" y="73" width="5" height="5" fill="#39FF14"/><rect x="68" y="18" width="5" height="5" fill="#39FF14"/><rect x="63" y="23" width="5" height="5" fill="#39FF14"/><rect x="58" y="28" width="5" height="5" fill="#39FF14"/><rect x="53" y="33" width="5" height="5" fill="#39FF14"/><rect x="33" y="33" width="5" height="5" fill="#39FF14"/><rect x="38" y="33" width="5" height="5" fill="#39FF14"/><rect x="43" y="33" width="5" height="5" fill="#39FF14"/><rect x="48" y="33" width="5" height="5" fill="#39FF14"/><rect x="53" y="33" width="5" height="5" fill="#39FF14"/><rect x="58" y="33" width="5" height="5" fill="#39FF14"/><rect x="33" y="43" width="5" height="5" fill="#39FF14"/><rect x="38" y="43" width="5" height="5" fill="#39FF14"/><rect x="43" y="43" width="5" height="5" fill="#39FF14"/><rect x="48" y="43" width="5" height="5" fill="#39FF14"/><rect x="53" y="43" width="5" height="5" fill="#39FF14"/><rect x="58" y="43" width="5" height="5" fill="#39FF14"/><rect x="33" y="53" width="5" height="5" fill="#39FF14"/><rect x="38" y="53" width="5" height="5" fill="#39FF14"/><rect x="43" y="53" width="5" height="5" fill="#39FF14"/><rect x="48" y="53" width="5" height="5" fill="#39FF14"/><rect x="53" y="53" width="5" height="5" fill="#39FF14"/><rect x="58" y="53" width="5" height="5" fill="#39FF14"/><rect x="33" y="63" width="5" height="5" fill="#39FF14"/><rect x="38" y="63" width="5" height="5" fill="#39FF14"/><rect x="43" y="63" width="5" height="5" fill="#39FF14"/><rect x="48" y="63" width="5" height="5" fill="#39FF14"/><rect x="53" y="63" width="5" height="5" fill="#39FF14"/><rect x="58" y="63" width="5" height="5" fill="#39FF14"/><rect x="108" y="30" width="5" height="5" fill="#39FF14"/><rect x="113" y="30" width="5" height="5" fill="#39FF14"/><rect x="118" y="30" width="5" height="5" fill="#39FF14"/><rect x="123" y="30" width="5" height="5" fill="#39FF14"/><rect x="138" y="30" width="5" height="5" fill="#39FF14"/><rect x="143" y="30" width="5" height="5" fill="#39FF14"/><rect x="148" y="30" width="5" height="5" fill="#39FF14"/><rect x="153" y="30" width="5" height="5" fill="#39FF14"/><rect x="158" y="30" width="5" height="5" fill="#39FF14"/><rect x="173" y="30" width="5" height="5" fill="#39FF14"/><rect x="178" y="30" width="5" height="5" fill="#39FF14"/><rect x="183" y="30" width="5" height="5" fill="#39FF14"/><rect x="188" y="30" width="5" height="5" fill="#39FF14"/><rect x="198" y="30" width="5" height="5" fill="#39FF14"/><rect x="218" y="30" width="5" height="5" fill="#39FF14"/><rect x="228" y="30" width="5" height="5" fill="#39FF14"/><rect x="248" y="30" width="5" height="5" fill="#39FF14"/><rect x="258" y="30" width="5" height="5" fill="#39FF14"/><rect x="263" y="30" width="5" height="5" fill="#39FF14"/><rect x="268" y="30" width="5" height="5" fill="#39FF14"/><rect x="273" y="30" width="5" height="5" fill="#39FF14"/><rect x="278" y="30" width="5" height="5" fill="#39FF14"/><rect x="108" y="35" width="5" height="5" fill="#39FF14"/><rect x="128" y="35" width="5" height="5" fill="#39FF14"/><rect x="138" y="35" width="5" height="5" fill="#39FF14"/><rect x="168" y="35" width="5" height="5" fill="#39FF14"/><rect x="198" y="35" width="5" height="5" fill="#39FF14"/><rect x="218" y="35" width="5" height="5" fill="#39FF14"/><rect x="228" y="35" width="5" height="5" fill="#39FF14"/><rect x="233" y="35" width="5" height="5" fill="#39FF14"/><rect x="243" y="35" width="5" height="5" fill="#39FF14"/><rect x="248" y="35" width="5" height="5" fill="#39FF14"/><rect x="258" y="35" width="5" height="5" fill="#39FF14"/><rect x="108" y="40" width="5" height="5" fill="#39FF14"/><rect x="128" y="40" width="5" height="5" fill="#39FF14"/><rect x="138" y="40" width="5" height="5" fill="#39FF14"/><rect x="143" y="40" width="5" height="5" fill="#39FF14"/><rect x="148" y="40" width="5" height="5" fill="#39FF14"/><rect x="153" y="40" width="5" height="5" fill="#39FF14"/><rect x="168" y="40" width="5" height="5" fill="#39FF14"/><rect x="173" y="40" width="5" height="5" fill="#39FF14"/><rect x="178" y="40" width="5" height="5" fill="#39FF14"/><rect x="183" y="40" width="5" height="5" fill="#39FF14"/><rect x="198" y="40" width="5" height="5" fill="#39FF14"/><rect x="218" y="40" width="5" height="5" fill="#39FF14"/><rect x="228" y="40" width="5" height="5" fill="#39FF14"/><rect x="238" y="40" width="5" height="5" fill="#39FF14"/><rect x="248" y="40" width="5" height="5" fill="#39FF14"/><rect x="258" y="40" width="5" height="5" fill="#39FF14"/><rect x="263" y="40" width="5" height="5" fill="#39FF14"/><rect x="268" y="40" width="5" height="5" fill="#39FF14"/><rect x="273" y="40" width="5" height="5" fill="#39FF14"/><rect x="108" y="45" width="5" height="5" fill="#39FF14"/><rect x="113" y="45" width="5" height="5" fill="#39FF14"/><rect x="118" y="45" width="5" height="5" fill="#39FF14"/><rect x="123" y="45" width="5" height="5" fill="#39FF14"/><rect x="138" y="45" width="5" height="5" fill="#39FF14"/><rect x="188" y="45" width="5" height="5" fill="#39FF14"/><rect x="198" y="45" width="5" height="5" fill="#39FF14"/><rect x="218" y="45" width="5" height="5" fill="#39FF14"/><rect x="228" y="45" width="5" height="5" fill="#39FF14"/><rect x="238" y="45" width="5" height="5" fill="#39FF14"/><rect x="248" y="45" width="5" height="5" fill="#39FF14"/><rect x="258" y="45" width="5" height="5" fill="#39FF14"/><rect x="108" y="50" width="5" height="5" fill="#39FF14"/><rect x="118" y="50" width="5" height="5" fill="#39FF14"/><rect x="138" y="50" width="5" height="5" fill="#39FF14"/><rect x="188" y="50" width="5" height="5" fill="#39FF14"/><rect x="198" y="50" width="5" height="5" fill="#39FF14"/><rect x="218" y="50" width="5" height="5" fill="#39FF14"/><rect x="228" y="50" width="5" height="5" fill="#39FF14"/><rect x="248" y="50" width="5" height="5" fill="#39FF14"/><rect x="258" y="50" width="5" height="5" fill="#39FF14"/><rect x="108" y="55" width="5" height="5" fill="#39FF14"/><rect x="123" y="55" width="5" height="5" fill="#39FF14"/><rect x="138" y="55" width="5" height="5" fill="#39FF14"/><rect x="168" y="55" width="5" height="5" fill="#39FF14"/><rect x="188" y="55" width="5" height="5" fill="#39FF14"/><rect x="198" y="55" width="5" height="5" fill="#39FF14"/><rect x="218" y="55" width="5" height="5" fill="#39FF14"/><rect x="228" y="55" width="5" height="5" fill="#39FF14"/><rect x="248" y="55" width="5" height="5" fill="#39FF14"/><rect x="258" y="55" width="5" height="5" fill="#39FF14"/><rect x="108" y="60" width="5" height="5" fill="#39FF14"/><rect x="128" y="60" width="5" height="5" fill="#39FF14"/><rect x="138" y="60" width="5" height="5" fill="#39FF14"/><rect x="143" y="60" width="5" height="5" fill="#39FF14"/><rect x="148" y="60" width="5" height="5" fill="#39FF14"/><rect x="153" y="60" width="5" height="5" fill="#39FF14"/><rect x="158" y="60" width="5" height="5" fill="#39FF14"/><rect x="173" y="60" width="5" height="5" fill="#39FF14"/><rect x="178" y="60" width="5" height="5" fill="#39FF14"/><rect x="183" y="60" width="5" height="5" fill="#39FF14"/><rect x="203" y="60" width="5" height="5" fill="#39FF14"/><rect x="208" y="60" width="5" height="5" fill="#39FF14"/><rect x="213" y="60" width="5" height="5" fill="#39FF14"/><rect x="228" y="60" width="5" height="5" fill="#39FF14"/><rect x="248" y="60" width="5" height="5" fill="#39FF14"/><rect x="258" y="60" width="5" height="5" fill="#39FF14"/><rect x="263" y="60" width="5" height="5" fill="#39FF14"/><rect x="268" y="60" width="5" height="5" fill="#39FF14"/><rect x="273" y="60" width="5" height="5" fill="#39FF14"/><rect x="278" y="60" width="5" height="5" fill="#39FF14"/></svg>